<svg xmlns="http://www.w3.org/2000/svg" xmlns:xlink="http://www.w3.org/1999/xlink" width="30" height="160" viewBox="0 0 30 160"><svg width="28" height="28" viewBox="0 0 28 28" id="svg-check" y="0"><path d="M26.11 8.844q0 .625-.44 1.062L12.234 23.344q-.438.438-1.062.438t-1.06-.438l-7.782-7.78q-.438-.44-.438-1.063t.438-1.06l2.125-2.126q.438-.438 1.062-.438t1.062.438l4.594 4.61L21.42 5.656q.44-.438 1.063-.438t1.062.437l2.125 2.125q.438.437.438 1.062z" fill="#fff"/></svg>
<svg width="16" height="28" viewBox="0 0 16 28" id="svg-facebook" y="28"><path d="M14.984.187v4.125H12.53q-1.343 0-1.812.562t-.47 1.687v2.954h4.58l-.61 4.625h-3.97v11.858H5.47v-11.86H1.484V9.515h3.984V6.108q0-2.906 1.625-4.508T11.42-.002q2.298 0 3.564.187z" fill="#565978"/></svg>
<svg width="28" height="28" viewBox="0 0 28 28" id="svg-instagram" y="56"><path d="M21.28 22.28V12.157h-2.108q.313.984.313 2.047 0 1.97-1 3.633t-2.72 2.633-3.75.968q-3.077 0-5.265-2.117t-2.188-5.116q0-1.062.313-2.047H2.672v10.125q0 .406.273.68t.68.273h16.703q.39 0 .672-.273t.28-.68zm-4.436-8.327q0-1.937-1.414-3.305T12.016 9.28q-1.984 0-3.398 1.368t-1.414 3.305 1.414 3.305 3.398 1.367q2 0 3.414-1.367t1.414-3.305zm4.437-5.625V5.75q0-.438-.312-.758t-.766-.32h-2.72q-.452 0-.765.32t-.313.758v2.578q0 .453.313.766t.766.313h2.72q.452 0 .765-.313t.313-.766zM24 5.078v17.844q0 1.266-.906 2.172T20.922 26H3.078q-1.266 0-2.172-.906T0 22.922V5.078q0-1.266.906-2.172T3.078 2h17.844q1.266 0 2.172.906T24 5.078z" fill="#565978"/></svg>
<svg width="26" height="28" viewBox="0 0 26 28" id="svg-twitter" y="84"><path d="M25.312 6.375q-1.047 1.53-2.53 2.61.015.218.015.655 0 2.03-.594 4.055t-1.805 3.883-2.883 3.29-4.03 2.28T8.436 24q-4.234 0-7.75-2.266.547.063 1.22.063 3.515 0 6.265-2.156-1.64-.03-2.938-1.007t-1.78-2.492q.515.08.952.08.672 0 1.328-.173-1.75-.36-2.898-1.742t-1.148-3.21v-.064q1.062.595 2.28.642-1.03-.688-1.64-1.797t-.61-2.406q0-1.376.69-2.548 1.89 2.328 4.6 3.727t5.806 1.554q-.125-.594-.125-1.156 0-2.094 1.476-3.57T17.736 4q2.188 0 3.687 1.595 1.703-.328 3.203-1.22-.578 1.798-2.22 2.782 1.454-.156 2.907-.78z" fill="#565978"/></svg>
<svg width="20" height="20" viewBox="0 0 20 20" id="svg-user-add" y="112"><path d="M12.377 14.448c-2.49-.898-3.287-1.656-3.287-3.28 0-.973.76-.655 1.095-2.44.14-.74.81-.01.938-1.7 0-.673-.366-.84-.366-.84s.187-.998.26-1.764C11.106 3.468 10.456 1 7 1S2.894 3.468 2.984 4.424c.073.767.26 1.763.26 1.763s-.367.167-.367.84c.13 1.69.8.962.938 1.702.335 1.783 1.096 1.465 1.096 2.44 0 1.622-.796 2.38-3.287 3.278-.3.107-1.015.275-1.623.538V19h16v-2.105s-1.123-1.546-3.623-2.447zM17 9V6h-2v3h-3v2h3v3h2v-3h3V9h-3z" fill="#E37161"/></svg>
<svg width="30" height="28" viewBox="0 0 30 28" id="svg-vk" y="132"><path d="M29.953 8.125q.36 1-2.344 4.594-.376.5-1.017 1.327-1.22 1.563-1.406 2.047-.266.64.22 1.266.265.328 1.265 1.28h.016l.063.064q2.204 2.047 2.985 3.453.047.078.102.195t.11.414-.01.53-.39.43-.922.196l-4 .063q-.375.078-.875-.078t-.812-.344l-.313-.187q-.47-.328-1.094-1t-1.07-1.21-.952-.907-.883-.243q-.047.016-.125.055t-.266.227-.336.46-.266.812-.102 1.21q0 .235-.055.43t-.117.29l-.063.078q-.28.297-.828.344H14.67q-1.11.063-2.28-.258t-2.056-.828-1.61-1.03-1.1-.9l-.392-.374q-.156-.156-.43-.47t-1.117-1.42-1.656-2.36-1.915-3.297-2.04-4.25q-.093-.25-.093-.422t.047-.25L.09 7.97q.234-.296.89-.296l4.282-.03q.187.03.36.1t.25.134l.077.047q.25.172.376.5.313.78.72 1.617t.64 1.273l.25.453q.453.938.875 1.625t.76 1.07.647.602.53.22.423-.08q.03-.015.078-.077t.187-.344.21-.734.15-1.266 0-1.953q-.032-.624-.142-1.14t-.22-.72l-.093-.186q-.39-.53-1.328-.672-.203-.03.078-.375.266-.297.594-.47.828-.405 3.734-.374 1.28.016 2.11.203.312.078.522.21t.32.376.164.5.055.71-.017.86-.04 1.102-.022 1.29q0 .17-.015.655t-.008.75.055.632.18.61.352.382q.125.03.266.063t.406-.172.594-.54.812-1.046 1.062-1.68q.938-1.626 1.672-3.517.063-.156.156-.273t.172-.164l.063-.047.078-.04.203-.047.313-.008 4.5-.03q.61-.08 1 .038t.485.258z" fill="#565978"/></svg>
</svg>