<svg xmlns="http://www.w3.org/2000/svg" xmlns:xlink="http://www.w3.org/1999/xlink" width="28" height="48" viewBox="0 0 28 48"><svg width="28" height="28" viewBox="0 0 28 28" id="check" y="0"><path d="M26.11 8.844q0 .625-.44 1.062L12.234 23.344q-.438.438-1.062.438t-1.06-.438l-7.782-7.78q-.438-.44-.438-1.063t.438-1.06l2.125-2.126q.438-.438 1.062-.438t1.062.438l4.594 4.61L21.42 5.656q.44-.438 1.063-.438t1.062.437l2.125 2.125q.438.437.438 1.062z"/></svg>
<svg width="20" height="20" viewBox="0 0 20 20" id="user-add" y="28"><path d="M12.377 14.448c-2.49-.898-3.287-1.656-3.287-3.28 0-.973.76-.655 1.095-2.44.14-.74.81-.01.938-1.7 0-.673-.366-.84-.366-.84s.187-.998.26-1.764C11.106 3.468 10.456 1 7 1S2.894 3.468 2.984 4.424c.073.767.26 1.763.26 1.763s-.367.167-.367.84c.13 1.69.8.962.938 1.702.335 1.783 1.096 1.465 1.096 2.44 0 1.622-.796 2.38-3.287 3.278-.3.107-1.015.275-1.623.538V19h16v-2.105s-1.123-1.546-3.623-2.447zM17 9V6h-2v3h-3v2h3v3h2v-3h3V9h-3z"/></svg>
</svg>