<svg xmlns="http://www.w3.org/2000/svg" xmlns:xlink="http://www.w3.org/1999/xlink" preserveAspectRatio="xMidYMid" width="25" height="25" viewBox="0 0 25 25">
  <defs>
    <style>

      .cls-11 {
        fill: #ffffff;
      }
    </style>
  </defs>
  <path d="M12.491,24.952 C5.609,24.952 0.010,19.353 0.010,12.471 C0.010,5.589 5.609,-0.010 12.491,-0.010 C19.373,-0.010 24.972,5.589 24.972,12.471 C24.972,19.353 19.373,24.952 12.491,24.952 ZM12.491,0.499 C5.890,0.499 0.519,5.870 0.519,12.471 C0.519,19.072 5.890,24.443 12.491,24.443 C19.092,24.443 24.463,19.072 24.463,12.471 C24.463,5.870 19.092,0.499 12.491,0.499 ZM16.386,16.727 C16.386,16.727 12.491,12.831 12.491,12.831 C12.491,12.831 8.596,16.727 8.596,16.727 C8.596,16.727 8.235,16.366 8.235,16.366 C8.235,16.366 12.131,12.471 12.131,12.471 C12.131,12.471 8.235,8.575 8.235,8.575 C8.235,8.575 8.596,8.215 8.596,8.215 C8.596,8.215 12.491,12.111 12.491,12.111 C12.491,12.111 16.386,8.215 16.386,8.215 C16.386,8.215 16.747,8.575 16.747,8.575 C16.747,8.575 12.851,12.471 12.851,12.471 C12.851,12.471 16.747,16.366 16.747,16.366 C16.747,16.366 16.386,16.727 16.386,16.727 Z" id="path-1" class="cls-11" fill-rule="evenodd"/>
</svg>
