<svg xmlns="http://www.w3.org/2000/svg" xmlns:xlink="http://www.w3.org/1999/xlink" preserveAspectRatio="xMidYMid" width="34" height="26" viewBox="0 0 34 26">
  <defs>
    <style>

      .cls-10 {
        fill: #ffffff;
      }
    </style>
  </defs>
  <path d="M30.909,26.000 C30.909,26.000 3.091,26.000 3.091,26.000 C1.386,26.000 0.000,24.613 0.000,22.910 C0.000,22.910 0.000,8.095 0.000,8.095 C0.000,6.389 1.386,5.005 3.091,5.005 C3.091,5.005 7.459,5.005 7.459,5.005 C8.028,5.005 8.490,4.542 8.490,3.974 C8.490,3.974 8.490,3.089 8.490,3.089 C8.490,1.386 9.877,-0.000 11.581,-0.000 C11.581,-0.000 23.037,-0.000 23.037,-0.000 C24.742,-0.000 26.128,1.386 26.128,3.089 C26.128,3.089 26.128,3.975 26.128,3.975 C26.128,4.543 26.588,5.006 27.158,5.006 C27.158,5.006 30.909,5.006 30.909,5.006 C32.613,5.006 34.000,6.390 34.000,8.096 C34.000,8.096 34.000,22.910 34.000,22.910 C33.999,24.613 32.613,26.000 30.909,26.000 ZM33.500,8.096 C33.500,6.668 32.337,5.506 30.909,5.506 C30.909,5.506 27.158,5.506 27.158,5.506 C26.314,5.506 25.628,4.819 25.628,3.975 C25.628,3.975 25.628,3.089 25.628,3.089 C25.628,1.661 24.466,0.500 23.037,0.500 C23.037,0.500 11.581,0.500 11.581,0.500 C10.153,0.500 8.991,1.661 8.991,3.089 C8.991,3.089 8.991,3.974 8.991,3.974 C8.991,4.818 8.303,5.505 7.459,5.505 C7.459,5.505 3.091,5.505 3.091,5.505 C1.662,5.505 0.500,6.667 0.500,8.095 C0.500,8.095 0.500,22.910 0.500,22.910 C0.500,24.338 1.662,25.500 3.091,25.500 C3.091,25.500 30.909,25.500 30.909,25.500 C32.337,25.500 33.499,24.338 33.500,22.910 C33.500,22.910 33.500,8.096 33.500,8.096 ZM17.000,21.131 C13.341,21.131 10.368,18.157 10.368,14.499 C10.368,10.842 13.341,7.869 17.000,7.869 C20.656,7.869 23.632,10.842 23.632,14.499 C23.631,18.157 20.656,21.131 17.000,21.131 ZM17.000,8.369 C13.619,8.369 10.868,11.119 10.868,14.499 C10.868,17.880 13.619,20.631 17.000,20.631 C20.380,20.631 23.131,17.880 23.132,14.499 C23.132,11.119 20.381,8.369 17.000,8.369 Z" id="path-1" class="cls-10" fill-rule="evenodd"/>
</svg>
